<?xml version="1.0" standalone="no"?>
<!DOCTYPE svg PUBLIC "-//W3C//DTD SVG 20010904//EN"
 "http://www.w3.org/TR/2001/REC-SVG-20010904/DTD/svg10.dtd">
<svg version="1.0" xmlns="http://www.w3.org/2000/svg"
 width="1024.000000pt" height="1024.000000pt" viewBox="0 0 1024.000000 1024.000000"
 preserveAspectRatio="xMidYMid meet">
<metadata>
Created by potrace 1.14, written by Peter Selinger 2001-2017
</metadata>
<g transform="translate(0.000000,1024.000000) scale(0.100000,-0.100000)"
fill="#000000" stroke="none">
<path d="M4935 9702 c-3 -4 -160 -13 -252 -16 -24 0 -43 -3 -43 -6 0 -4 -10
-6 -22 -6 -30 -1 -135 -13 -173 -20 -16 -3 -46 -7 -65 -9 -19 -2 -35 -4 -35
-5 0 -2 -21 -6 -67 -14 -21 -3 -59 -11 -85 -17 -27 -6 -59 -13 -73 -15 -14 -2
-36 -7 -50 -11 -14 -4 -32 -8 -40 -9 -33 -6 -61 -13 -72 -20 -6 -4 -21 -8 -32
-9 -12 -1 -28 -5 -36 -8 -8 -3 -53 -17 -100 -30 -84 -25 -226 -72 -265 -88
-11 -4 -38 -16 -60 -25 -22 -9 -46 -16 -52 -15 -7 1 -13 -2 -13 -7 0 -5 -6 -9
-12 -9 -7 0 -34 -10 -60 -21 -26 -12 -52 -22 -57 -22 -6 0 -11 -4 -11 -10 0
-5 -5 -10 -12 -10 -16 0 -215 -95 -303 -144 -22 -12 -67 -37 -100 -55 -33 -18
-79 -46 -103 -62 -24 -16 -45 -29 -48 -29 -3 0 -20 -10 -37 -22 -17 -13 -39
-27 -48 -33 -10 -5 -38 -25 -64 -42 -25 -18 -49 -33 -52 -33 -3 0 -16 -11 -28
-24 -13 -14 -26 -22 -29 -19 -3 4 -6 0 -6 -7 0 -7 -3 -11 -6 -7 -3 3 -20 -7
-38 -23 -17 -17 -37 -30 -43 -30 -7 0 -13 -4 -13 -9 0 -5 -9 -13 -20 -16 -11
-4 -18 -11 -15 -16 4 -5 0 -9 -9 -9 -8 0 -16 -3 -18 -7 -1 -5 -25 -26 -53 -48
-27 -21 -60 -50 -72 -63 -13 -12 -23 -21 -23 -18 0 2 -19 -13 -42 -35 -23 -21
-46 -39 -51 -39 -4 0 -5 -4 -2 -10 3 -5 1 -10 -5 -10 -18 0 -272 -261 -399
-410 -89 -105 -96 -114 -101 -124 -5 -10 -28 -38 -67 -83 -13 -14 -23 -29 -23
-33 0 -3 -8 -15 -18 -26 -9 -10 -35 -46 -57 -79 -22 -33 -43 -61 -47 -63 -5
-2 -8 -7 -8 -12 0 -8 -59 -102 -80 -127 -6 -7 -10 -14 -10 -17 0 -2 -22 -41
-50 -85 -27 -45 -46 -81 -42 -81 4 0 2 -4 -3 -8 -6 -4 -27 -38 -45 -77 -19
-38 -37 -72 -40 -75 -9 -9 -120 -245 -120 -255 0 -3 -9 -24 -19 -48 -36 -78
-107 -268 -102 -275 1 -1 -6 -16 -14 -32 -8 -16 -15 -31 -15 -32 1 -2 -1 -10
-4 -18 -43 -121 -127 -466 -151 -620 -2 -14 -7 -38 -10 -55 -9 -41 -21 -139
-40 -320 -17 -153 -22 -502 -10 -675 11 -167 14 -216 20 -250 2 -19 7 -59 10
-89 3 -30 8 -66 12 -79 3 -14 7 -39 8 -56 2 -17 4 -31 5 -31 1 0 3 -11 5 -25
2 -21 20 -113 41 -210 3 -14 7 -36 10 -50 3 -14 8 -34 11 -45 4 -11 7 -22 8
-25 10 -48 20 -86 37 -135 11 -33 21 -69 23 -80 3 -22 51 -169 65 -200 5 -11
20 -51 34 -90 22 -64 44 -118 80 -200 54 -124 72 -160 79 -163 4 -2 7 -9 7
-15 0 -7 6 -23 13 -37 8 -14 40 -74 71 -135 32 -60 64 -117 72 -126 8 -8 14
-18 14 -22 0 -8 62 -109 77 -125 7 -7 13 -19 13 -27 0 -7 3 -15 8 -17 4 -1 25
-30 46 -63 59 -91 222 -307 264 -351 7 -8 11 -14 8 -14 -3 0 7 -13 22 -29 15
-16 52 -57 82 -92 58 -66 320 -330 361 -364 76 -63 87 -73 82 -79 -4 -3 -2 -6
4 -6 9 0 22 -9 79 -58 12 -10 66 -52 120 -93 55 -41 101 -77 102 -81 2 -5 10
-8 18 -8 8 0 14 -4 14 -8 0 -5 18 -18 40 -31 22 -12 40 -26 40 -32 0 -5 5 -9
10 -9 6 0 38 -18 71 -40 33 -22 65 -40 70 -40 5 0 9 -4 9 -10 0 -5 4 -10 9
-10 6 0 38 -17 73 -39 78 -48 201 -115 210 -116 3 0 9 -3 13 -7 14 -13 301
-148 327 -153 9 -2 29 -12 44 -22 16 -10 28 -17 29 -15 0 5 75 -21 145 -51 14
-6 30 -11 35 -12 6 -2 46 -15 90 -30 44 -15 85 -28 90 -29 6 -1 16 -5 23 -9 6
-5 12 -6 12 -3 0 3 12 1 27 -5 36 -13 209 -59 248 -65 17 -3 44 -9 60 -14 17
-5 48 -11 69 -15 21 -3 48 -7 60 -10 35 -8 79 -15 121 -21 22 -3 47 -7 55 -9
24 -7 131 -18 177 -19 24 -1 43 -4 43 -7 0 -3 15 -6 33 -6 17 0 86 -4 152 -9
205 -13 620 -7 714 11 9 2 47 6 83 9 37 4 75 9 86 11 10 2 43 6 73 10 30 3 86
13 124 20 39 8 81 16 95 19 23 4 196 42 230 51 8 2 62 18 120 35 58 16 112 32
120 34 8 2 42 14 75 26 33 11 67 23 75 25 8 2 40 13 70 25 30 12 79 30 108 41
29 11 61 24 70 29 9 5 60 28 112 50 283 124 681 363 910 547 8 6 42 33 76 60
68 54 161 133 209 178 150 141 287 281 377 386 26 29 56 65 68 79 12 14 31 38
43 53 12 15 29 36 37 46 80 96 234 321 330 481 64 107 216 400 259 500 30 68
122 301 126 315 1 6 5 19 9 30 29 76 110 350 108 362 -1 2 4 17 9 35 6 18 13
44 16 58 2 14 6 30 7 35 3 12 17 82 22 108 2 10 5 26 8 35 5 17 7 26 26 152 6
36 12 79 15 96 2 16 7 59 11 95 3 35 8 67 10 70 7 13 17 270 17 444 0 215 -18
503 -37 610 -2 17 -7 50 -11 75 -5 43 -9 63 -20 120 -3 14 -7 41 -10 60 -2 19
-6 44 -9 55 -6 22 -34 149 -41 180 -6 29 -28 115 -35 137 -1 4 -15 50 -30 102
-16 52 -34 104 -40 115 -6 12 -8 21 -5 21 3 0 -1 16 -9 35 -9 20 -15 36 -15
38 0 1 -5 16 -12 32 -7 17 -13 33 -14 38 -2 4 -4 10 -5 15 -1 4 -2 10 -1 15 0
4 -4 7 -9 7 -5 0 -9 3 -8 8 3 13 -22 91 -31 96 -5 3 -11 16 -15 29 -3 13 -22
59 -42 103 -21 43 -38 81 -39 84 -1 9 -102 204 -134 260 -18 30 -34 63 -37 73
-4 9 -10 17 -15 17 -5 0 -9 4 -9 9 0 21 -188 311 -202 311 -5 0 -6 5 -3 10 3
6 1 10 -4 10 -6 0 -11 6 -11 14 0 8 -3 16 -8 18 -4 2 -25 28 -47 58 -45 62
-200 252 -260 319 -58 64 -324 331 -330 331 -3 0 -17 13 -32 28 -26 26 -88 79
-203 172 -23 19 -49 41 -56 48 -8 7 -14 10 -14 5 0 -4 -5 0 -11 10 -5 9 -16
17 -24 17 -7 0 -15 4 -17 9 -4 13 -205 152 -307 213 -48 29 -88 54 -91 57 -3
3 -23 15 -45 26 -22 11 -42 22 -45 25 -3 3 -26 15 -52 28 -26 13 -50 27 -53
33 -4 5 -11 7 -16 4 -5 -4 -9 -2 -9 2 0 9 -68 43 -84 43 -4 0 -22 10 -39 22
-18 13 -33 22 -35 20 -1 -1 -28 9 -60 24 -64 29 -117 52 -147 64 -11 4 -45 18
-75 30 -193 79 -578 192 -760 224 -14 2 -36 7 -50 10 -14 3 -41 8 -60 11 -19
2 -48 7 -65 10 -64 11 -92 15 -140 20 -27 3 -68 8 -90 11 -130 18 -677 39
-690 26z"/>
</g>
</svg>
